<svg xmlns="http://www.w3.org/2000/svg" width="108" height="40" viewBox="0 0 108 40" fill="none">
  <mask id="mask0_1_35609" style="mask-type:alpha" maskUnits="userSpaceOnUse" x="0" y="8" width="108" height="24">
    <rect y="8" width="108" height="24" fill="#D9D9D9"/>
  </mask>
  <g mask="url(#mask0_1_35609)">
    <path d="M27.7723 31.4276H23.8316L16.4116 16.5527H21.3819L25.7842 25.9509L30.1864 16.5527H35.1922L27.7723 31.4276Z" fill="white"/>
    <path d="M8.24918 31.6301C3.59841 31.6301 0.0126953 28.1819 0.0126953 23.9899C0.0126953 19.7979 3.59841 16.3496 8.00066 16.3496C10.2018 16.3496 12.1899 17.161 13.681 18.6146C15.1721 20.0683 16.0241 22.0629 16.0241 24.2603V24.5308H4.98299C5.125 26.593 6.8646 27.81 8.5687 27.81C10.7698 27.81 11.9414 25.7478 11.9414 25.7478L15.2431 27.6748C15.2431 27.7424 13.042 31.6301 8.24918 31.6301ZM11.4089 22.1643C10.7343 20.7444 9.34974 20.2035 8.21368 20.2035C6.8646 20.2035 5.65753 20.9473 5.08949 22.1643H11.4089Z" fill="white"/>
    <path d="M100.212 31.6301C95.5613 31.6301 91.9756 28.1819 91.9756 23.9899C91.9756 19.7979 95.5613 16.3496 99.9636 16.3496C102.165 16.3496 104.153 17.161 105.644 18.6146C107.135 20.0683 107.987 22.0629 107.987 24.2603V24.5308H96.9459C97.0879 26.593 98.8275 27.81 100.532 27.81C102.733 27.81 103.904 25.7478 103.904 25.7478L107.206 27.6748C107.206 27.7424 105.005 31.6301 100.212 31.6301ZM103.372 22.1643C102.697 20.7444 101.313 20.2035 100.177 20.2035C98.8275 20.2035 97.6204 20.9473 97.0524 22.1643H103.372Z" fill="white"/>
    <path d="M84.1986 31.4278H80.2578L72.8379 16.553H77.8082L82.2104 25.9512L86.6127 16.553H91.6185L84.1986 31.4278Z" fill="white"/>
    <path d="M70.3424 31.4278H65.8691V8H70.3424V31.4278Z" fill="white"/>
  </g>
  <path d="M46.1879 16.4554C46.2923 16.456 46.3968 16.4565 46.5044 16.4571C48.2737 16.4844 49.5277 17.0598 50.7776 18.2508C50.8356 18.3051 50.8936 18.3593 50.9533 18.4151C51.9482 19.4276 52.4492 20.8047 52.5236 22.1726C52.5318 22.3218 52.5318 22.3218 52.5401 22.474C52.6018 24.7213 51.8276 26.8802 50.3668 28.6435C50.2774 28.7529 50.2774 28.7529 50.1863 28.8645C49.3519 29.8226 48.3029 30.5618 47.0802 30.9966C46.9888 31.0349 46.8975 31.0732 46.8034 31.1126C45.3347 31.6529 43.4121 31.6081 41.9601 31.049C40.2758 30.2651 39.0877 29.0843 38.4175 27.418C37.6226 25.0764 38.0428 22.7038 39.1975 20.5426C40.2917 18.67 42.1328 17.2222 44.3034 16.6268C44.9325 16.4761 45.5412 16.4518 46.1879 16.4554Z" fill="#8952E0"/>
  <path d="M60.7468 18.0909C61.5153 18.7464 61.7203 19.6989 61.7934 20.6455C61.8101 21.0339 61.8178 21.4217 61.8188 21.8104C61.8191 21.8805 61.8194 21.9506 61.8197 22.0228C61.8193 23.5271 61.5559 24.9327 61.1512 26.3879C61.1282 26.4711 61.1052 26.5544 61.0816 26.6402C60.5536 28.4971 59.6455 30.7103 57.867 31.8075C57.4917 31.9787 57.1438 32.0345 56.7348 31.9764C56.0824 31.6713 55.7477 31.1958 55.5163 30.5535C55.2847 29.7306 55.2399 28.9319 55.2456 28.0853C55.2457 28.0149 55.2459 27.9446 55.246 27.8722C55.2585 25.4392 55.8785 23.064 57.0429 20.8974C57.1329 20.7281 57.1329 20.7281 57.2247 20.5554C57.8576 19.4093 59.1459 17.4047 60.7468 18.0909Z" fill="#8952E0"/>
</svg>