<svg xmlns="http://www.w3.org/2000/svg" width="20" height="20" viewBox="0 0 20 20" fill="none">
  <g opacity="0.32">
    <path fill-rule="evenodd" clip-rule="evenodd" d="M14.8333 3.33331C15.7668 3.33331 16.2335 3.33331 16.59 3.51497C16.9036 3.67476 17.1586 3.92973 17.3183 4.24333C17.5 4.59985 17.5 5.06656 17.5 5.99998V12.3333C17.5 13.2667 17.5 13.7334 17.3183 14.09C17.1586 14.4036 16.9036 14.6585 16.59 14.8183C16.2335 15 15.7668 15 14.8333 15H7.60208C7.25539 15 7.08204 15 6.91623 15.034C6.76913 15.0642 6.62678 15.1141 6.49305 15.1825C6.34232 15.2595 6.20695 15.3677 5.93623 15.5843L4.66626 16.6003C3.97278 17.1551 3.62605 17.4325 3.33423 17.4328C3.08045 17.4331 2.84037 17.3177 2.68205 17.1193C2.5 16.8913 2.5 16.4472 2.5 15.5591V5.99998C2.5 5.06656 2.5 4.59985 2.68166 4.24333C2.84144 3.92973 3.09641 3.67476 3.41002 3.51497C3.76654 3.33331 4.23325 3.33331 5.16667 3.33331H14.8333Z" fill="white"/>
    <path d="M13.3333 9.16665H13.335V9.16831H13.3333V9.16665Z" fill="white"/>
    <path d="M10 9.16665H10.0017V9.16831H10V9.16665Z" fill="white"/>
    <path d="M6.66667 9.16665H6.66833V9.16831H6.66667V9.16665Z" fill="white"/>
  </g>
  <path d="M17.5 5.9974C17.5 5.06581 17.5 4.59931 17.3185 4.24314C17.1587 3.92954 16.9034 3.67476 16.5898 3.51497C16.2333 3.33331 15.7669 3.33331 14.8335 3.33331H5.16683C4.23341 3.33331 3.76635 3.33331 3.40983 3.51497C3.09623 3.67476 2.84144 3.92954 2.68166 4.24314C2.5 4.59966 2.5 5.06672 2.5 6.00014V15.5593C2.5 16.4474 2.5 16.8912 2.68205 17.1193C2.84037 17.3176 3.08036 17.4331 3.33415 17.4328C3.62596 17.4325 3.97287 17.155 4.66634 16.6003L5.94527 15.5771C6.21003 15.3653 6.34363 15.2584 6.49269 15.1823C6.62642 15.114 6.7694 15.0642 6.9165 15.034C7.08231 15 7.25503 15 7.60173 15H14.8357C15.7673 15 16.2337 15 16.5898 14.8185C16.9034 14.6587 17.1587 14.4034 17.3185 14.0898C17.5 13.7336 17.5 13.2678 17.5 12.3362V5.9974Z" stroke="white" stroke-width="1.66667" stroke-linecap="round" stroke-linejoin="round"/>
</svg>