<svg xmlns="http://www.w3.org/2000/svg" width="32" height="32" viewBox="0 0 32 32" fill="none">
  <path d="M29.3337 16.0003C29.3337 23.3641 23.3641 29.3337 16.0003 29.3337C8.63653 29.3337 2.66699 23.3641 2.66699 16.0003C2.66699 8.63653 8.63653 2.66699 16.0003 2.66699C23.3641 2.66699 29.3337 8.63653 29.3337 16.0003Z" fill="white"/>
  <path fill-rule="evenodd" clip-rule="evenodd" d="M14.6738 9.86888C14.6817 9.8742 14.6897 9.87953 14.6977 9.88487L21.7303 14.5732C21.9337 14.7088 22.1224 14.8346 22.2673 14.9514C22.4185 15.0734 22.5968 15.2425 22.6994 15.4899C22.835 15.8169 22.835 16.1844 22.6994 16.5114C22.5968 16.7588 22.4185 16.928 22.2673 17.0499C22.1224 17.1668 21.9337 17.2925 21.7303 17.4281L14.6738 22.1325C14.4251 22.2983 14.2014 22.4474 14.0116 22.5503C13.8217 22.6532 13.561 22.7708 13.2568 22.7526C12.8676 22.7294 12.5081 22.537 12.2729 22.2261C12.089 21.983 12.0423 21.7009 12.0226 21.4858C12.0029 21.2708 12.0029 21.002 12.0029 20.7031L12.0029 11.3271C12.0029 11.3175 12.0029 11.3078 12.0029 11.2983C12.0029 10.9993 12.0029 10.7305 12.0226 10.5156C12.0423 10.3005 12.089 10.0184 12.2729 9.77528C12.5081 9.46436 12.8676 9.27196 13.2568 9.24872C13.561 9.23056 13.8217 9.34817 14.0116 9.45108C14.2014 9.55393 14.425 9.70305 14.6738 9.86888ZM13.353 10.611C13.3521 10.6191 13.3512 10.6278 13.3504 10.6372C13.3369 10.7837 13.3363 10.9901 13.3363 11.3271V20.6743C13.3363 21.0112 13.3369 21.2176 13.3504 21.3641C13.3512 21.3735 13.3521 21.3823 13.353 21.3904C13.3602 21.3866 13.368 21.3825 13.3763 21.378C13.5057 21.3079 13.6778 21.194 13.9581 21.0071L20.9685 16.3335C21.2017 16.178 21.3385 16.0861 21.4303 16.012C21.4352 16.008 21.4399 16.0042 21.4441 16.0007C21.4399 15.9971 21.4352 15.9933 21.4303 15.9893C21.3385 15.9153 21.2017 15.8233 20.9685 15.6679L13.9581 10.9943C13.6778 10.8074 13.5057 10.6934 13.3763 10.6233C13.368 10.6188 13.3602 10.6147 13.353 10.611Z" fill="#0E0E0E"/>
  <path d="M13.3504 10.6372C13.3512 10.6278 13.3521 10.6191 13.353 10.611C13.3602 10.6147 13.368 10.6188 13.3763 10.6233C13.5057 10.6934 13.6778 10.8074 13.9581 10.9943L20.9685 15.6679C21.2017 15.8233 21.3385 15.9153 21.4303 15.9893L21.4441 16.0007L21.4303 16.012C21.3385 16.0861 21.2017 16.178 20.9685 16.3335L13.9581 21.0071C13.6778 21.194 13.5057 21.3079 13.3763 21.378C13.368 21.3825 13.3602 21.3866 13.353 21.3904C13.3521 21.3823 13.3512 21.3735 13.3504 21.3641C13.3369 21.2176 13.3363 21.0112 13.3363 20.6743V11.3271C13.3363 10.9901 13.3369 10.7837 13.3504 10.6372Z" fill="#0E0E0E"/>
</svg>